<svg version="1.1" baseProfile="full" xmlns="http://www.w3.org/2000/svg"
width="579.5" height="1024"
viewBox="-18.03 -62.73 36.07 63.73"
>
<rect x="-18.03" y="-62.73" width="100%" height="100%" fill="white" />
<path stroke="green" stroke-width="0.04" stroke-linecap="round" fill="none"
transform="scale(1 -1)"
d="	M 0 0
	L -4.371e-08 1
	L -8.742e-08 2
	L -1.311e-07 3
	L -1.748e-07 4
	L -2.186e-07 5
	L -2.623e-07 6
	L -3.06e-07 7
	L -3.497e-07 8
	L -3.934e-07 9
	L -4.371e-07 10
	L -4.808e-07 11
	L -5.245e-07 12
	L -5.682e-07 13
	L -6.12e-07 14
	L -6.557e-07 15
	L -6.994e-07 16
	L -0.342 16.94
	L -0.684 17.88
	L -1.026 18.82
	L -1.368 19.76
	L -1.71 20.7
	L -2.052 21.64
	L -2.394 22.58
	L -2.736 23.52
	L -3.379 24.28
	L -4.022 25.05
	L -4.665 25.82
	L -5.307 26.58
	L -6.173 27.08
	L -7.039 27.58
	L -8.024 27.76
	L -9.009 27.58
	M -8.024 27.76
	L -9.009 27.93
	L -9.875 28.43
	M -9.009 27.93
	L -9.994 27.76
	M -7.039 27.58
	L -7.905 28.08
	L -8.771 28.58
	L -9.414 29.35
	L -10.28 29.85
	M -9.414 29.35
	L -10.06 30.11
	L -10.4 31.05
	M -10.06 30.11
	L -10.92 30.61
	M -8.771 28.58
	L -9.756 28.76
	L -10.74 28.58
	M -9.756 28.76
	L -10.74 28.93
	L -11.61 29.43
	M -10.74 28.93
	L -11.73 28.76
	M -5.307 26.58
	L -5.95 27.35
	L -6.593 28.11
	L -7.236 28.88
	L -7.878 29.65
	L -8.22 30.59
	L -8.563 31.53
	L -9.205 32.29
	L -10.07 32.79
	M -9.205 32.29
	L -9.848 33.06
	L -10.19 34
	M -9.848 33.06
	L -10.71 33.56
	M -8.563 31.53
	L -8.905 32.46
	L -9.247 33.4
	L -9.247 34.4
	L -9.589 35.34
	M -9.247 34.4
	L -9.247 35.4
	L -8.905 36.34
	M -9.247 35.4
	L -9.589 36.34
	M -9.247 33.4
	L -9.889 34.17
	L -10.76 34.67
	M -9.889 34.17
	L -10.53 34.94
	L -10.87 35.88
	M -10.53 34.94
	L -11.4 35.44
	M -7.878 29.65
	L -8.744 30.15
	L -9.611 30.65
	L -10.6 30.82
	L -11.58 30.65
	M -10.6 30.82
	L -11.58 30.99
	L -12.45 31.49
	M -11.58 30.99
	L -12.56 30.82
	M -9.611 30.65
	L -10.48 31.15
	L -11.34 31.65
	L -11.99 32.41
	L -12.85 32.91
	M -11.99 32.41
	L -12.63 33.18
	L -12.97 34.12
	M -12.63 33.18
	L -13.49 33.68
	M -11.34 31.65
	L -12.33 31.82
	L -13.31 31.65
	M -12.33 31.82
	L -13.31 31.99
	L -14.18 32.49
	M -13.31 31.99
	L -14.3 31.82
	M -2.736 23.52
	L -3.078 24.46
	L -3.42 25.4
	L -3.762 26.34
	L -4.104 27.28
	L -4.446 28.22
	L -4.788 29.16
	L -5.13 30.1
	L -5.472 31.04
	L -5.472 32.04
	L -5.472 33.04
	L -5.472 34.04
	L -5.472 35.04
	L -5.814 35.97
	L -6.156 36.91
	L -6.799 37.68
	L -7.665 38.18
	M -6.799 37.68
	L -7.442 38.45
	L -7.784 39.39
	M -7.442 38.45
	L -8.308 38.95
	M -6.156 36.91
	L -6.498 37.85
	L -6.84 38.79
	L -6.84 39.79
	L -7.182 40.73
	M -6.84 39.79
	L -6.84 40.79
	L -6.498 41.73
	M -6.84 40.79
	L -7.182 41.73
	M -6.84 38.79
	L -7.483 39.56
	L -8.349 40.06
	M -7.483 39.56
	L -8.126 40.33
	L -8.468 41.27
	M -8.126 40.33
	L -8.992 40.83
	M -5.472 35.04
	L -5.472 36.04
	L -5.472 37.04
	L -5.472 38.04
	L -5.472 39.04
	L -5.13 39.97
	L -4.788 40.91
	L -4.788 41.91
	L -5.13 42.85
	M -4.788 41.91
	L -4.788 42.91
	L -4.446 43.85
	M -4.788 42.91
	L -5.13 43.85
	M -4.788 40.91
	L -4.446 41.85
	L -4.104 42.79
	L -3.461 43.56
	L -3.119 44.5
	M -3.461 43.56
	L -2.819 44.33
	L -1.953 44.83
	M -2.819 44.33
	L -2.477 45.27
	M -4.104 42.79
	L -4.104 43.79
	L -4.446 44.73
	M -4.104 43.79
	L -4.104 44.79
	L -3.762 45.73
	M -4.104 44.79
	L -4.446 45.73
	M -5.472 39.04
	L -5.814 39.97
	L -6.156 40.91
	L -6.799 41.68
	L -7.665 42.18
	M -6.799 41.68
	L -7.442 42.45
	L -7.784 43.39
	M -7.442 42.45
	L -8.308 42.95
	M -6.156 40.91
	L -6.498 41.85
	L -6.84 42.79
	L -6.84 43.79
	L -7.182 44.73
	M -6.84 43.79
	L -6.84 44.79
	L -6.498 45.73
	M -6.84 44.79
	L -7.182 45.73
	M -6.84 42.79
	L -7.483 43.56
	L -8.349 44.06
	M -7.483 43.56
	L -8.126 44.33
	L -8.468 45.27
	M -8.126 44.33
	L -8.992 44.83
	M -5.472 31.04
	L -6.115 31.8
	L -6.758 32.57
	L -7.401 33.33
	L -8.043 34.1
	L -8.909 34.6
	L -9.776 35.1
	L -10.76 35.27
	L -11.75 35.1
	M -10.76 35.27
	L -11.75 35.45
	L -12.61 35.95
	M -11.75 35.45
	L -12.73 35.27
	M -9.776 35.1
	L -10.64 35.6
	L -11.51 36.1
	L -12.15 36.87
	L -13.02 37.37
	M -12.15 36.87
	L -12.79 37.63
	L -13.14 38.57
	M -12.79 37.63
	L -13.66 38.13
	M -11.51 36.1
	L -12.49 36.27
	L -13.48 36.1
	M -12.49 36.27
	L -13.48 36.45
	L -14.34 36.95
	M -13.48 36.45
	L -14.46 36.27
	M -8.043 34.1
	L -8.686 34.87
	L -9.329 35.63
	L -9.972 36.4
	L -10.61 37.16
	L -10.96 38.1
	L -11.3 39.04
	L -11.94 39.81
	L -12.81 40.31
	M -11.94 39.81
	L -12.58 40.57
	L -12.93 41.51
	M -12.58 40.57
	L -13.45 41.07
	M -11.3 39.04
	L -11.64 39.98
	L -11.98 40.92
	L -11.98 41.92
	L -12.32 42.86
	M -11.98 41.92
	L -11.98 42.92
	L -11.64 43.86
	M -11.98 42.92
	L -12.32 43.86
	M -11.98 40.92
	L -12.63 41.69
	L -13.49 42.19
	M -12.63 41.69
	L -13.27 42.45
	L -13.61 43.39
	M -13.27 42.45
	L -14.13 42.95
	M -10.61 37.16
	L -11.48 37.66
	L -12.35 38.16
	L -13.33 38.34
	L -14.32 38.16
	M -13.33 38.34
	L -14.32 38.51
	L -15.18 39.01
	M -14.32 38.51
	L -15.3 38.34
	M -12.35 38.16
	L -13.21 38.66
	L -14.08 39.16
	L -14.72 39.93
	L -15.59 40.43
	M -14.72 39.93
	L -15.36 40.7
	L -15.71 41.64
	M -15.36 40.7
	L -16.23 41.2
	M -14.08 39.16
	L -15.06 39.34
	L -16.05 39.16
	M -15.06 39.34
	L -16.05 39.51
	L -16.91 40.01
	M -16.05 39.51
	L -17.03 39.34
	M -6.994e-07 16
	L -7.431e-07 17
	L -7.868e-07 18
	L -8.305e-07 19
	L -8.742e-07 20
	L -9.179e-07 21
	L -9.617e-07 22
	L -1.005e-06 23
	L -1.049e-06 24
	L -1.093e-06 25
	L -1.136e-06 26
	L -1.18e-06 27
	L -1.224e-06 28
	L -1.268e-06 29
	L -1.311e-06 30
	L -1.355e-06 31
	L -1.399e-06 32
	L 0.342 32.94
	L 0.684 33.88
	L 1.026 34.82
	L 1.368 35.76
	L 1.71 36.7
	L 2.052 37.64
	L 2.394 38.58
	L 2.736 39.52
	L 2.736 40.52
	L 2.736 41.52
	L 2.736 42.52
	L 2.736 43.52
	L 2.394 44.46
	L 2.052 45.4
	L 1.409 46.16
	L 0.5433 46.66
	M 1.409 46.16
	L 0.7665 46.93
	L 0.4245 47.87
	M 0.7665 46.93
	L -0.09948 47.43
	M 2.052 45.4
	L 1.71 46.34
	L 1.368 47.28
	L 1.368 48.28
	L 1.026 49.22
	M 1.368 48.28
	L 1.368 49.28
	L 1.71 50.22
	M 1.368 49.28
	L 1.026 50.22
	M 1.368 47.28
	L 0.7253 48.04
	L -0.1407 48.54
	M 0.7253 48.04
	L 0.0825 48.81
	L -0.2595 49.75
	M 0.0825 48.81
	L -0.7835 49.31
	M 2.736 43.52
	L 2.736 44.52
	L 2.736 45.52
	L 2.736 46.52
	L 2.736 47.52
	L 3.078 48.46
	L 3.42 49.4
	L 3.42 50.4
	L 3.078 51.34
	M 3.42 50.4
	L 3.42 51.4
	L 3.762 52.34
	M 3.42 51.4
	L 3.078 52.34
	M 3.42 49.4
	L 3.762 50.34
	L 4.104 51.28
	L 4.747 52.04
	L 5.089 52.98
	M 4.747 52.04
	L 5.39 52.81
	L 6.256 53.31
	M 5.39 52.81
	L 5.732 53.75
	M 4.104 51.28
	L 4.104 52.28
	L 3.762 53.22
	M 4.104 52.28
	L 4.104 53.28
	L 4.446 54.22
	M 4.104 53.28
	L 3.762 54.22
	M 2.736 47.52
	L 2.394 48.46
	L 2.052 49.4
	L 1.409 50.16
	L 0.5433 50.66
	M 1.409 50.16
	L 0.7665 50.93
	L 0.4245 51.87
	M 0.7665 50.93
	L -0.09948 51.43
	M 2.052 49.4
	L 1.71 50.34
	L 1.368 51.28
	L 1.368 52.28
	L 1.026 53.22
	M 1.368 52.28
	L 1.368 53.28
	L 1.71 54.22
	M 1.368 53.28
	L 1.026 54.22
	M 1.368 51.28
	L 0.7253 52.04
	L -0.1407 52.54
	M 0.7253 52.04
	L 0.0825 52.81
	L -0.2595 53.75
	M 0.0825 52.81
	L -0.7835 53.31
	M 2.736 39.52
	L 3.078 40.46
	L 3.42 41.4
	L 3.762 42.34
	L 4.104 43.28
	L 4.446 44.22
	L 4.788 45.16
	L 5.13 46.1
	L 5.472 47.04
	L 6.115 47.8
	L 6.758 48.57
	L 7.401 49.33
	L 8.043 50.1
	L 8.385 51.04
	L 8.728 51.98
	L 8.728 52.98
	L 8.385 53.92
	M 8.728 52.98
	L 8.728 53.98
	L 9.07 54.92
	M 8.728 53.98
	L 8.385 54.92
	M 8.728 51.98
	L 9.07 52.92
	L 9.412 53.86
	L 10.05 54.62
	L 10.4 55.56
	M 10.05 54.62
	L 10.7 55.39
	L 11.56 55.89
	M 10.7 55.39
	L 11.04 56.33
	M 9.412 53.86
	L 9.412 54.86
	L 9.07 55.8
	M 9.412 54.86
	L 9.412 55.86
	L 9.754 56.8
	M 9.412 55.86
	L 9.07 56.8
	M 8.043 50.1
	L 8.686 50.87
	L 9.329 51.63
	L 9.972 52.4
	L 10.61 53.16
	L 11.48 53.66
	L 12.35 54.16
	L 12.99 54.93
	L 13.33 55.87
	M 12.99 54.93
	L 13.63 55.7
	L 14.5 56.2
	M 13.63 55.7
	L 13.97 56.64
	M 12.35 54.16
	L 13.21 54.66
	L 14.08 55.16
	L 15.06 55.34
	L 15.93 55.84
	M 15.06 55.34
	L 16.05 55.51
	L 17.03 55.34
	M 16.05 55.51
	L 16.91 56.01
	M 14.08 55.16
	L 14.72 55.93
	L 15.06 56.87
	M 14.72 55.93
	L 15.36 56.7
	L 16.23 57.2
	M 15.36 56.7
	L 15.71 57.64
	M 10.61 53.16
	L 10.96 54.1
	L 11.3 55.04
	L 11.3 56.04
	L 10.96 56.98
	M 11.3 56.04
	L 11.3 57.04
	L 11.64 57.98
	M 11.3 57.04
	L 10.96 57.98
	M 11.3 55.04
	L 11.64 55.98
	L 11.98 56.92
	L 12.63 57.69
	L 12.97 58.63
	M 12.63 57.69
	L 13.27 58.45
	L 14.13 58.95
	M 13.27 58.45
	L 13.61 59.39
	M 11.98 56.92
	L 11.98 57.92
	L 11.64 58.86
	M 11.98 57.92
	L 11.98 58.92
	L 12.32 59.86
	M 11.98 58.92
	L 11.64 59.86
	M 5.472 47.04
	L 5.472 48.04
	L 5.472 49.04
	L 5.472 50.04
	L 5.472 51.04
	L 5.13 51.97
	L 4.788 52.91
	L 4.145 53.68
	L 3.279 54.18
	M 4.145 53.68
	L 3.503 54.45
	L 3.161 55.39
	M 3.503 54.45
	L 2.637 54.95
	M 4.788 52.91
	L 4.446 53.85
	L 4.104 54.79
	L 4.104 55.79
	L 3.762 56.73
	M 4.104 55.79
	L 4.104 56.79
	L 4.446 57.73
	M 4.104 56.79
	L 3.762 57.73
	M 4.104 54.79
	L 3.461 55.56
	L 2.595 56.06
	M 3.461 55.56
	L 2.819 56.33
	L 2.477 57.27
	M 2.819 56.33
	L 1.953 56.83
	M 5.472 51.04
	L 5.472 52.04
	L 5.472 53.04
	L 5.472 54.04
	L 5.472 55.04
	L 5.814 55.97
	L 6.156 56.91
	L 6.156 57.91
	L 5.814 58.85
	M 6.156 57.91
	L 6.156 58.91
	L 6.498 59.85
	M 6.156 58.91
	L 5.814 59.85
	M 6.156 56.91
	L 6.498 57.85
	L 6.84 58.79
	L 7.483 59.56
	L 7.825 60.5
	M 7.483 59.56
	L 8.126 60.33
	L 8.992 60.83
	M 8.126 60.33
	L 8.468 61.27
	M 6.84 58.79
	L 6.84 59.79
	L 6.498 60.73
	M 6.84 59.79
	L 6.84 60.79
	L 7.182 61.73
	M 6.84 60.79
	L 6.498 61.73
	M 5.472 55.04
	L 5.13 55.97
	L 4.788 56.91
	L 4.145 57.68
	L 3.279 58.18
	M 4.145 57.68
	L 3.503 58.45
	L 3.161 59.39
	M 3.503 58.45
	L 2.637 58.95
	M 4.788 56.91
	L 4.446 57.85
	L 4.104 58.79
	L 4.104 59.79
	L 3.762 60.73
	M 4.104 59.79
	L 4.104 60.79
	L 4.446 61.73
	M 4.104 60.79
	L 3.762 61.73
	M 4.104 58.79
	L 3.461 59.56
	L 2.595 60.06
	M 3.461 59.56
	L 2.819 60.33
	L 2.477 61.27
	M 2.819 60.33
	L 1.953 60.83
	M -1.399e-06 32
	L -0.342 32.94
	L -0.684 33.88
	L -1.026 34.82
	L -1.368 35.76
	L -1.71 36.7
	L -2.052 37.64
	L -2.394 38.58
	L -2.736 39.52
	L -3.379 40.28
	L -4.022 41.05
	L -4.665 41.82
	L -5.307 42.58
	L -6.173 43.08
	L -7.039 43.58
	L -8.024 43.76
	L -9.009 43.58
	M -8.024 43.76
	L -9.009 43.93
	L -9.875 44.43
	M -9.009 43.93
	L -9.994 43.76
	M -7.039 43.58
	L -7.905 44.08
	L -8.771 44.58
	L -9.414 45.35
	L -10.28 45.85
	M -9.414 45.35
	L -10.06 46.11
	L -10.4 47.05
	M -10.06 46.11
	L -10.92 46.61
	M -8.771 44.58
	L -9.756 44.76
	L -10.74 44.58
	M -9.756 44.76
	L -10.74 44.93
	L -11.61 45.43
	M -10.74 44.93
	L -11.73 44.76
	M -5.307 42.58
	L -5.95 43.35
	L -6.593 44.11
	L -7.236 44.88
	L -7.878 45.65
	L -8.22 46.59
	L -8.563 47.53
	L -9.205 48.29
	L -10.07 48.79
	M -9.205 48.29
	L -9.848 49.06
	L -10.19 50
	M -9.848 49.06
	L -10.71 49.56
	M -8.563 47.53
	L -8.905 48.46
	L -9.247 49.4
	L -9.247 50.4
	L -9.589 51.34
	M -9.247 50.4
	L -9.247 51.4
	L -8.905 52.34
	M -9.247 51.4
	L -9.589 52.34
	M -9.247 49.4
	L -9.889 50.17
	L -10.76 50.67
	M -9.889 50.17
	L -10.53 50.94
	L -10.87 51.88
	M -10.53 50.94
	L -11.4 51.44
	M -7.878 45.65
	L -8.744 46.15
	L -9.611 46.65
	L -10.6 46.82
	L -11.58 46.65
	M -10.6 46.82
	L -11.58 46.99
	L -12.45 47.49
	M -11.58 46.99
	L -12.56 46.82
	M -9.611 46.65
	L -10.48 47.15
	L -11.34 47.65
	L -11.99 48.41
	L -12.85 48.91
	M -11.99 48.41
	L -12.63 49.18
	L -12.97 50.12
	M -12.63 49.18
	L -13.49 49.68
	M -11.34 47.65
	L -12.33 47.82
	L -13.31 47.65
	M -12.33 47.82
	L -13.31 47.99
	L -14.18 48.49
	M -13.31 47.99
	L -14.3 47.82
	M -2.736 39.52
	L -3.078 40.46
	L -3.42 41.4
	L -3.762 42.34
	L -4.104 43.28
	L -4.446 44.22
	L -4.788 45.16
	L -5.13 46.1
	L -5.472 47.04
	L -5.472 48.04
	L -5.472 49.04
	L -5.472 50.04
	L -5.472 51.04
	L -5.814 51.97
	L -6.156 52.91
	L -6.799 53.68
	L -7.665 54.18
	M -6.799 53.68
	L -7.442 54.45
	L -7.784 55.39
	M -7.442 54.45
	L -8.308 54.95
	M -6.156 52.91
	L -6.498 53.85
	L -6.84 54.79
	L -6.84 55.79
	L -7.182 56.73
	M -6.84 55.79
	L -6.84 56.79
	L -6.498 57.73
	M -6.84 56.79
	L -7.182 57.73
	M -6.84 54.79
	L -7.483 55.56
	L -8.349 56.06
	M -7.483 55.56
	L -8.126 56.33
	L -8.468 57.27
	M -8.126 56.33
	L -8.992 56.83
	M -5.472 51.04
	L -5.472 52.04
	L -5.472 53.04
	L -5.472 54.04
	L -5.472 55.04
	L -5.13 55.97
	L -4.788 56.91
	L -4.788 57.91
	L -5.13 58.85
	M -4.788 57.91
	L -4.788 58.91
	L -4.446 59.85
	M -4.788 58.91
	L -5.13 59.85
	M -4.788 56.91
	L -4.446 57.85
	L -4.104 58.79
	L -3.461 59.56
	L -3.119 60.5
	M -3.461 59.56
	L -2.819 60.33
	L -1.953 60.83
	M -2.819 60.33
	L -2.477 61.27
	M -4.104 58.79
	L -4.104 59.79
	L -4.446 60.73
	M -4.104 59.79
	L -4.104 60.79
	L -3.762 61.73
	M -4.104 60.79
	L -4.446 61.73
	M -5.472 55.04
	L -5.814 55.97
	L -6.156 56.91
	L -6.799 57.68
	L -7.665 58.18
	M -6.799 57.68
	L -7.442 58.45
	L -7.784 59.39
	M -7.442 58.45
	L -8.308 58.95
	M -6.156 56.91
	L -6.498 57.85
	L -6.84 58.79
	L -6.84 59.79
	L -7.182 60.73
	M -6.84 59.79
	L -6.84 60.79
	L -6.498 61.73
	M -6.84 60.79
	L -7.182 61.73
	M -6.84 58.79
	L -7.483 59.56
	L -8.349 60.06
	M -7.483 59.56
	L -8.126 60.33
	L -8.468 61.27
	M -8.126 60.33
	L -8.992 60.83
	M -5.472 47.04
	L -6.115 47.8
	L -6.758 48.57
	L -7.401 49.33
	L -8.043 50.1
	L -8.909 50.6
	L -9.776 51.1
	L -10.76 51.27
	L -11.75 51.1
	M -10.76 51.27
	L -11.75 51.45
	L -12.61 51.95
	M -11.75 51.45
	L -12.73 51.27
	M -9.776 51.1
	L -10.64 51.6
	L -11.51 52.1
	L -12.15 52.87
	L -13.02 53.37
	M -12.15 52.87
	L -12.79 53.63
	L -13.14 54.57
	M -12.79 53.63
	L -13.66 54.13
	M -11.51 52.1
	L -12.49 52.27
	L -13.48 52.1
	M -12.49 52.27
	L -13.48 52.45
	L -14.34 52.95
	M -13.48 52.45
	L -14.46 52.27
	M -8.043 50.1
	L -8.686 50.87
	L -9.329 51.63
	L -9.972 52.4
	L -10.61 53.16
	L -10.96 54.1
	L -11.3 55.04
	L -11.94 55.81
	L -12.81 56.31
	M -11.94 55.81
	L -12.58 56.57
	L -12.93 57.51
	M -12.58 56.57
	L -13.45 57.07
	M -11.3 55.04
	L -11.64 55.98
	L -11.98 56.92
	L -11.98 57.92
	L -12.32 58.86
	M -11.98 57.92
	L -11.98 58.92
	L -11.64 59.86
	M -11.98 58.92
	L -12.32 59.86
	M -11.98 56.92
	L -12.63 57.69
	L -13.49 58.19
	M -12.63 57.69
	L -13.27 58.45
	L -13.61 59.39
	M -13.27 58.45
	L -14.13 58.95
	M -10.61 53.16
	L -11.48 53.66
	L -12.35 54.16
	L -13.33 54.34
	L -14.32 54.16
	M -13.33 54.34
	L -14.32 54.51
	L -15.18 55.01
	M -14.32 54.51
	L -15.3 54.34
	M -12.35 54.16
	L -13.21 54.66
	L -14.08 55.16
	L -14.72 55.93
	L -15.59 56.43
	M -14.72 55.93
	L -15.36 56.7
	L -15.71 57.64
	M -15.36 56.7
	L -16.23 57.2
	M -14.08 55.16
	L -15.06 55.34
	L -16.05 55.16
	M -15.06 55.34
	L -16.05 55.51
	L -16.91 56.01
	M -16.05 55.51
	L -17.03 55.34
"/>
</svg>
