<svg version="1.1" baseProfile="full" xmlns="http://www.w3.org/2000/svg"
width="892.4" height="1024"
viewBox="-1 -128.5 112.9 129.5"
>
<rect x="-1" y="-128.5" width="100%" height="100%" fill="white" />
<path stroke="green" stroke-width="0.04" stroke-linecap="round" fill="none"
transform="scale(1 -1)"
d="	M 0 0
	L -4.371e-08 1
	L 0.866 1.5
	L 1.732 1
	L 2.598 1.5
	L 2.598 2.5
	L 1.732 3
	L 0.866 2.5
	L -8.742e-08 3
	L -1.311e-07 4
	L 0.866 4.5
	L 0.866 5.5
	L -1.748e-07 6
	L -2.186e-07 7
	L 0.866 7.5
	L 1.732 7
	L 1.732 6
	L 2.598 5.5
	L 3.464 6
	L 4.33 5.5
	L 4.33 4.5
	L 3.464 4
	L 3.464 3
	L 4.33 2.5
	L 5.196 3
	L 5.196 4
	L 6.062 4.5
	L 6.928 4
	L 7.794 4.5
	L 7.794 5.5
	L 6.928 6
	L 6.928 7
	L 7.794 7.5
	L 8.66 7
	L 8.66 6
	L 9.526 5.5
	L 10.39 6
	L 10.39 7
	L 11.26 7.5
	L 12.12 7
	L 12.99 7.5
	L 12.99 8.5
	L 12.12 9
	L 11.26 8.5
	L 10.39 9
	L 10.39 10
	L 9.526 10.5
	L 8.66 10
	L 8.66 9
	L 7.794 8.5
	L 6.928 9
	L 6.928 10
	L 7.794 10.5
	L 7.794 11.5
	L 6.928 12
	L 6.062 11.5
	L 5.196 12
	L 5.196 13
	L 4.33 13.5
	L 3.464 13
	L 3.464 12
	L 4.33 11.5
	L 4.33 10.5
	L 3.464 10
	L 2.598 10.5
	L 1.732 10
	L 1.732 9
	L 0.866 8.5
	L -7.987e-07 9
	L -8.424e-07 10
	L 0.866 10.5
	L 0.866 11.5
	L -8.861e-07 12
	L -9.298e-07 13
	L 0.866 13.5
	L 1.732 13
	L 2.598 13.5
	L 2.598 14.5
	L 1.732 15
	L 0.866 14.5
	L -9.736e-07 15
	L -1.017e-06 16
	L 0.866 16.5
	L 0.866 17.5
	L -1.061e-06 18
	L -1.105e-06 19
	L 0.866 19.5
	L 1.732 19
	L 1.732 18
	L 2.598 17.5
	L 3.464 18
	L 3.464 19
	L 4.33 19.5
	L 5.196 19
	L 6.062 19.5
	L 6.062 20.5
	L 5.196 21
	L 4.33 20.5
	L 3.464 21
	L 3.464 22
	L 2.598 22.5
	L 1.732 22
	L 1.732 21
	L 0.866 20.5
	L -1.268e-06 21
	L -1.311e-06 22
	L 0.866 22.5
	L 0.866 23.5
	L -1.355e-06 24
	L -1.399e-06 25
	L 0.866 25.5
	L 1.732 25
	L 2.598 25.5
	L 2.598 26.5
	L 1.732 27
	L 0.866 26.5
	L -1.442e-06 27
	L -1.486e-06 28
	L 0.866 28.5
	L 0.866 29.5
	L -1.53e-06 30
	L -1.574e-06 31
	L 0.866 31.5
	L 1.732 31
	L 1.732 30
	L 2.598 29.5
	L 3.464 30
	L 4.33 29.5
	L 4.33 28.5
	L 3.464 28
	L 3.464 27
	L 4.33 26.5
	L 5.196 27
	L 5.196 28
	L 6.062 28.5
	L 6.928 28
	L 6.928 27
	L 7.794 26.5
	L 8.66 27
	L 9.526 26.5
	L 9.526 25.5
	L 8.66 25
	L 7.794 25.5
	L 6.928 25
	L 6.928 24
	L 7.794 23.5
	L 7.794 22.5
	L 6.928 22
	L 6.928 21
	L 7.794 20.5
	L 8.66 21
	L 8.66 22
	L 9.526 22.5
	L 10.39 22
	L 11.26 22.5
	L 11.26 23.5
	L 10.39 24
	L 10.39 25
	L 11.26 25.5
	L 12.12 25
	L 12.12 24
	L 12.99 23.5
	L 13.86 24
	L 14.72 23.5
	L 14.72 22.5
	L 13.86 22
	L 13.86 21
	L 14.72 20.5
	L 15.59 21
	L 15.59 22
	L 16.45 22.5
	L 17.32 22
	L 17.32 21
	L 18.19 20.5
	L 19.05 21
	L 19.92 20.5
	L 19.92 19.5
	L 19.05 19
	L 18.19 19.5
	L 17.32 19
	L 17.32 18
	L 16.45 17.5
	L 15.59 18
	L 15.59 19
	L 14.72 19.5
	L 13.86 19
	L 13.86 18
	L 14.72 17.5
	L 14.72 16.5
	L 13.86 16
	L 13.86 15
	L 14.72 14.5
	L 15.59 15
	L 16.45 14.5
	L 16.45 13.5
	L 15.59 13
	L 14.72 13.5
	L 13.86 13
	L 13.86 12
	L 14.72 11.5
	L 14.72 10.5
	L 13.86 10
	L 13.86 9
	L 14.72 8.5
	L 15.59 9
	L 15.59 10
	L 16.45 10.5
	L 17.32 10
	L 18.19 10.5
	L 18.19 11.5
	L 17.32 12
	L 17.32 13
	L 18.19 13.5
	L 19.05 13
	L 19.05 12
	L 19.92 11.5
	L 20.78 12
	L 20.78 13
	L 21.65 13.5
	L 22.52 13
	L 23.38 13.5
	L 23.38 14.5
	L 22.52 15
	L 21.65 14.5
	L 20.78 15
	L 20.78 16
	L 21.65 16.5
	L 21.65 17.5
	L 20.78 18
	L 20.78 19
	L 21.65 19.5
	L 22.52 19
	L 22.52 18
	L 23.38 17.5
	L 24.25 18
	L 25.11 17.5
	L 25.11 16.5
	L 24.25 16
	L 24.25 15
	L 25.11 14.5
	L 25.98 15
	L 25.98 16
	L 26.85 16.5
	L 27.71 16
	L 28.58 16.5
	L 28.58 17.5
	L 27.71 18
	L 27.71 19
	L 28.58 19.5
	L 29.44 19
	L 29.44 18
	L 30.31 17.5
	L 31.18 18
	L 31.18 19
	L 32.04 19.5
	L 32.91 19
	L 33.77 19.5
	L 33.77 20.5
	L 32.91 21
	L 32.04 20.5
	L 31.18 21
	L 31.18 22
	L 30.31 22.5
	L 29.44 22
	L 29.44 21
	L 28.58 20.5
	L 27.71 21
	L 27.71 22
	L 28.58 22.5
	L 28.58 23.5
	L 27.71 24
	L 27.71 25
	L 28.58 25.5
	L 29.44 25
	L 30.31 25.5
	L 30.31 26.5
	L 29.44 27
	L 28.58 26.5
	L 27.71 27
	L 27.71 28
	L 28.58 28.5
	L 28.58 29.5
	L 27.71 30
	L 27.71 31
	L 28.58 31.5
	L 29.44 31
	L 29.44 30
	L 30.31 29.5
	L 31.18 30
	L 32.04 29.5
	L 32.04 28.5
	L 31.18 28
	L 31.18 27
	L 32.04 26.5
	L 32.91 27
	L 32.91 28
	L 33.77 28.5
	L 34.64 28
	L 34.64 27
	L 35.51 26.5
	L 36.37 27
	L 37.24 26.5
	L 37.24 25.5
	L 36.37 25
	L 35.51 25.5
	L 34.64 25
	L 34.64 24
	L 35.51 23.5
	L 35.51 22.5
	L 34.64 22
	L 34.64 21
	L 35.51 20.5
	L 36.37 21
	L 36.37 22
	L 37.24 22.5
	L 38.11 22
	L 38.97 22.5
	L 38.97 23.5
	L 38.11 24
	L 38.11 25
	L 38.97 25.5
	L 39.84 25
	L 39.84 24
	L 40.7 23.5
	L 41.57 24
	L 41.57 25
	L 42.44 25.5
	L 43.3 25
	L 44.17 25.5
	L 44.17 26.5
	L 43.3 27
	L 42.44 26.5
	L 41.57 27
	L 41.57 28
	L 42.44 28.5
	L 42.44 29.5
	L 41.57 30
	L 41.57 31
	L 42.44 31.5
	L 43.3 31
	L 43.3 30
	L 44.17 29.5
	L 45.03 30
	L 45.9 29.5
	L 45.9 28.5
	L 45.03 28
	L 45.03 27
	L 45.9 26.5
	L 46.77 27
	L 46.77 28
	L 47.63 28.5
	L 48.5 28
	L 49.36 28.5
	L 49.36 29.5
	L 48.5 30
	L 48.5 31
	L 49.36 31.5
	L 50.23 31
	L 50.23 30
	L 51.1 29.5
	L 51.96 30
	L 51.96 31
	L 52.83 31.5
	L 53.69 31
	L 54.56 31.5
	L 54.56 32.5
	L 53.69 33
	L 52.83 32.5
	L 51.96 33
	L 51.96 34
	L 51.1 34.5
	L 50.23 34
	L 50.23 33
	L 49.36 32.5
	L 48.5 33
	L 48.5 34
	L 49.36 34.5
	L 49.36 35.5
	L 48.5 36
	L 47.63 35.5
	L 46.77 36
	L 46.77 37
	L 45.9 37.5
	L 45.03 37
	L 45.03 36
	L 45.9 35.5
	L 45.9 34.5
	L 45.03 34
	L 44.17 34.5
	L 43.3 34
	L 43.3 33
	L 42.44 32.5
	L 41.57 33
	L 41.57 34
	L 42.44 34.5
	L 42.44 35.5
	L 41.57 36
	L 41.57 37
	L 42.44 37.5
	L 43.3 37
	L 44.17 37.5
	L 44.17 38.5
	L 43.3 39
	L 42.44 38.5
	L 41.57 39
	L 41.57 40
	L 40.7 40.5
	L 39.84 40
	L 39.84 39
	L 38.97 38.5
	L 38.11 39
	L 38.11 40
	L 38.97 40.5
	L 38.97 41.5
	L 38.11 42
	L 37.24 41.5
	L 36.37 42
	L 36.37 43
	L 35.51 43.5
	L 34.64 43
	L 34.64 42
	L 35.51 41.5
	L 35.51 40.5
	L 34.64 40
	L 34.64 39
	L 35.51 38.5
	L 36.37 39
	L 37.24 38.5
	L 37.24 37.5
	L 36.37 37
	L 35.51 37.5
	L 34.64 37
	L 34.64 36
	L 33.77 35.5
	L 32.91 36
	L 32.91 37
	L 32.04 37.5
	L 31.18 37
	L 31.18 36
	L 32.04 35.5
	L 32.04 34.5
	L 31.18 34
	L 30.31 34.5
	L 29.44 34
	L 29.44 33
	L 28.58 32.5
	L 27.71 33
	L 27.71 34
	L 28.58 34.5
	L 28.58 35.5
	L 27.71 36
	L 27.71 37
	L 28.58 37.5
	L 29.44 37
	L 30.31 37.5
	L 30.31 38.5
	L 29.44 39
	L 28.58 38.5
	L 27.71 39
	L 27.71 40
	L 28.58 40.5
	L 28.58 41.5
	L 27.71 42
	L 27.71 43
	L 28.58 43.5
	L 29.44 43
	L 29.44 42
	L 30.31 41.5
	L 31.18 42
	L 31.18 43
	L 32.04 43.5
	L 32.91 43
	L 33.77 43.5
	L 33.77 44.5
	L 32.91 45
	L 32.04 44.5
	L 31.18 45
	L 31.18 46
	L 30.31 46.5
	L 29.44 46
	L 29.44 45
	L 28.58 44.5
	L 27.71 45
	L 27.71 46
	L 28.58 46.5
	L 28.58 47.5
	L 27.71 48
	L 26.85 47.5
	L 25.98 48
	L 25.98 49
	L 25.11 49.5
	L 24.25 49
	L 24.25 48
	L 25.11 47.5
	L 25.11 46.5
	L 24.25 46
	L 23.38 46.5
	L 22.52 46
	L 22.52 45
	L 21.65 44.5
	L 20.78 45
	L 20.78 46
	L 21.65 46.5
	L 21.65 47.5
	L 20.78 48
	L 20.78 49
	L 21.65 49.5
	L 22.52 49
	L 23.38 49.5
	L 23.38 50.5
	L 22.52 51
	L 21.65 50.5
	L 20.78 51
	L 20.78 52
	L 19.92 52.5
	L 19.05 52
	L 19.05 51
	L 18.19 50.5
	L 17.32 51
	L 17.32 52
	L 18.19 52.5
	L 18.19 53.5
	L 17.32 54
	L 16.45 53.5
	L 15.59 54
	L 15.59 55
	L 14.72 55.5
	L 13.86 55
	L 13.86 54
	L 14.72 53.5
	L 14.72 52.5
	L 13.86 52
	L 13.86 51
	L 14.72 50.5
	L 15.59 51
	L 16.45 50.5
	L 16.45 49.5
	L 15.59 49
	L 14.72 49.5
	L 13.86 49
	L 13.86 48
	L 14.72 47.5
	L 14.72 46.5
	L 13.86 46
	L 13.86 45
	L 14.72 44.5
	L 15.59 45
	L 15.59 46
	L 16.45 46.5
	L 17.32 46
	L 17.32 45
	L 18.19 44.5
	L 19.05 45
	L 19.92 44.5
	L 19.92 43.5
	L 19.05 43
	L 18.19 43.5
	L 17.32 43
	L 17.32 42
	L 16.45 41.5
	L 15.59 42
	L 15.59 43
	L 14.72 43.5
	L 13.86 43
	L 13.86 42
	L 14.72 41.5
	L 14.72 40.5
	L 13.86 40
	L 12.99 40.5
	L 12.12 40
	L 12.12 39
	L 11.26 38.5
	L 10.39 39
	L 10.39 40
	L 11.26 40.5
	L 11.26 41.5
	L 10.39 42
	L 9.526 41.5
	L 8.66 42
	L 8.66 43
	L 7.794 43.5
	L 6.928 43
	L 6.928 42
	L 7.794 41.5
	L 7.794 40.5
	L 6.928 40
	L 6.928 39
	L 7.794 38.5
	L 8.66 39
	L 9.526 38.5
	L 9.526 37.5
	L 8.66 37
	L 7.794 37.5
	L 6.928 37
	L 6.928 36
	L 6.062 35.5
	L 5.196 36
	L 5.196 37
	L 4.33 37.5
	L 3.464 37
	L 3.464 36
	L 4.33 35.5
	L 4.33 34.5
	L 3.464 34
	L 2.598 34.5
	L 1.732 34
	L 1.732 33
	L 0.866 32.5
	L -7.28e-06 33
	L -7.323e-06 34
	L 0.866 34.5
	L 0.866 35.5
	L -7.367e-06 36
	L -7.411e-06 37
	L 0.866 37.5
	L 1.732 37
	L 2.598 37.5
	L 2.598 38.5
	L 1.732 39
	L 0.866 38.5
	L -7.455e-06 39
	L -7.498e-06 40
	L 0.866 40.5
	L 0.866 41.5
	L -7.542e-06 42
	L -7.586e-06 43
	L 0.866 43.5
	L 1.732 43
	L 1.732 42
	L 2.598 41.5
	L 3.464 42
	L 3.464 43
	L 4.33 43.5
	L 5.196 43
	L 6.062 43.5
	L 6.062 44.5
	L 5.196 45
	L 4.33 44.5
	L 3.464 45
	L 3.464 46
	L 2.598 46.5
	L 1.732 46
	L 1.732 45
	L 0.866 44.5
	L -7.749e-06 45
	L -7.792e-06 46
	L 0.866 46.5
	L 0.866 47.5
	L -7.836e-06 48
	L -7.88e-06 49
	L 0.866 49.5
	L 1.732 49
	L 2.598 49.5
	L 2.598 50.5
	L 1.732 51
	L 0.866 50.5
	L -7.923e-06 51
	L -7.967e-06 52
	L 0.866 52.5
	L 0.866 53.5
	L -8.011e-06 54
	L -8.055e-06 55
	L 0.866 55.5
	L 1.732 55
	L 1.732 54
	L 2.598 53.5
	L 3.464 54
	L 4.33 53.5
	L 4.33 52.5
	L 3.464 52
	L 3.464 51
	L 4.33 50.5
	L 5.196 51
	L 5.196 52
	L 6.062 52.5
	L 6.928 52
	L 7.794 52.5
	L 7.794 53.5
	L 6.928 54
	L 6.928 55
	L 7.794 55.5
	L 8.66 55
	L 8.66 54
	L 9.526 53.5
	L 10.39 54
	L 10.39 55
	L 11.26 55.5
	L 12.12 55
	L 12.99 55.5
	L 12.99 56.5
	L 12.12 57
	L 11.26 56.5
	L 10.39 57
	L 10.39 58
	L 9.526 58.5
	L 8.66 58
	L 8.66 57
	L 7.794 56.5
	L 6.928 57
	L 6.928 58
	L 7.794 58.5
	L 7.794 59.5
	L 6.928 60
	L 6.062 59.5
	L 5.196 60
	L 5.196 61
	L 4.33 61.5
	L 3.464 61
	L 3.464 60
	L 4.33 59.5
	L 4.33 58.5
	L 3.464 58
	L 2.598 58.5
	L 1.732 58
	L 1.732 57
	L 0.866 56.5
	L -8.635e-06 57
	L -8.678e-06 58
	L 0.866 58.5
	L 0.866 59.5
	L -8.722e-06 60
	L -8.766e-06 61
	L 0.866 61.5
	L 1.732 61
	L 2.598 61.5
	L 2.598 62.5
	L 1.732 63
	L 0.866 62.5
	L -8.81e-06 63
	L -8.853e-06 64
	L 0.866 64.5
	L 0.866 65.5
	L -8.897e-06 66
	L -8.941e-06 67
	L 0.866 67.5
	L 1.732 67
	L 1.732 66
	L 2.598 65.5
	L 3.464 66
	L 3.464 67
	L 4.33 67.5
	L 5.196 67
	L 6.062 67.5
	L 6.062 68.5
	L 5.196 69
	L 4.33 68.5
	L 3.464 69
	L 3.464 70
	L 2.598 70.5
	L 1.732 70
	L 1.732 69
	L 0.866 68.5
	L -9.104e-06 69
	L -9.147e-06 70
	L 0.866 70.5
	L 0.866 71.5
	L -9.191e-06 72
	L -9.235e-06 73
	L 0.866 73.5
	L 1.732 73
	L 2.598 73.5
	L 2.598 74.5
	L 1.732 75
	L 0.866 74.5
	L -9.279e-06 75
	L -9.322e-06 76
	L 0.866 76.5
	L 0.866 77.5
	L -9.366e-06 78
	L -9.41e-06 79
	L 0.866 79.5
	L 1.732 79
	L 1.732 78
	L 2.598 77.5
	L 3.464 78
	L 4.33 77.5
	L 4.33 76.5
	L 3.464 76
	L 3.464 75
	L 4.33 74.5
	L 5.196 75
	L 5.196 76
	L 6.062 76.5
	L 6.928 76
	L 6.928 75
	L 7.794 74.5
	L 8.66 75
	L 9.526 74.5
	L 9.526 73.5
	L 8.66 73
	L 7.794 73.5
	L 6.928 73
	L 6.928 72
	L 7.794 71.5
	L 7.794 70.5
	L 6.928 70
	L 6.928 69
	L 7.794 68.5
	L 8.66 69
	L 8.66 70
	L 9.526 70.5
	L 10.39 70
	L 11.26 70.5
	L 11.26 71.5
	L 10.39 72
	L 10.39 73
	L 11.26 73.5
	L 12.12 73
	L 12.12 72
	L 12.99 71.5
	L 13.86 72
	L 13.86 73
	L 14.72 73.5
	L 15.59 73
	L 16.45 73.5
	L 16.45 74.5
	L 15.59 75
	L 14.72 74.5
	L 13.86 75
	L 13.86 76
	L 14.72 76.5
	L 14.72 77.5
	L 13.86 78
	L 13.86 79
	L 14.72 79.5
	L 15.59 79
	L 15.59 78
	L 16.45 77.5
	L 17.32 78
	L 18.19 77.5
	L 18.19 76.5
	L 17.32 76
	L 17.32 75
	L 18.19 74.5
	L 19.05 75
	L 19.05 76
	L 19.92 76.5
	L 20.78 76
	L 21.65 76.5
	L 21.65 77.5
	L 20.78 78
	L 20.78 79
	L 21.65 79.5
	L 22.52 79
	L 22.52 78
	L 23.38 77.5
	L 24.25 78
	L 24.25 79
	L 25.11 79.5
	L 25.98 79
	L 26.85 79.5
	L 26.85 80.5
	L 25.98 81
	L 25.11 80.5
	L 24.25 81
	L 24.25 82
	L 23.38 82.5
	L 22.52 82
	L 22.52 81
	L 21.65 80.5
	L 20.78 81
	L 20.78 82
	L 21.65 82.5
	L 21.65 83.5
	L 20.78 84
	L 19.92 83.5
	L 19.05 84
	L 19.05 85
	L 18.19 85.5
	L 17.32 85
	L 17.32 84
	L 18.19 83.5
	L 18.19 82.5
	L 17.32 82
	L 16.45 82.5
	L 15.59 82
	L 15.59 81
	L 14.72 80.5
	L 13.86 81
	L 13.86 82
	L 14.72 82.5
	L 14.72 83.5
	L 13.86 84
	L 13.86 85
	L 14.72 85.5
	L 15.59 85
	L 16.45 85.5
	L 16.45 86.5
	L 15.59 87
	L 14.72 86.5
	L 13.86 87
	L 13.86 88
	L 12.99 88.5
	L 12.12 88
	L 12.12 87
	L 11.26 86.5
	L 10.39 87
	L 10.39 88
	L 11.26 88.5
	L 11.26 89.5
	L 10.39 90
	L 9.526 89.5
	L 8.66 90
	L 8.66 91
	L 7.794 91.5
	L 6.928 91
	L 6.928 90
	L 7.794 89.5
	L 7.794 88.5
	L 6.928 88
	L 6.928 87
	L 7.794 86.5
	L 8.66 87
	L 9.526 86.5
	L 9.526 85.5
	L 8.66 85
	L 7.794 85.5
	L 6.928 85
	L 6.928 84
	L 6.062 83.5
	L 5.196 84
	L 5.196 85
	L 4.33 85.5
	L 3.464 85
	L 3.464 84
	L 4.33 83.5
	L 4.33 82.5
	L 3.464 82
	L 2.598 82.5
	L 1.732 82
	L 1.732 81
	L 0.866 80.5
	L -1.13e-05 81
	L -1.134e-05 82
	L 0.866 82.5
	L 0.866 83.5
	L -1.139e-05 84
	L -1.143e-05 85
	L 0.866 85.5
	L 1.732 85
	L 2.598 85.5
	L 2.598 86.5
	L 1.732 87
	L 0.866 86.5
	L -1.148e-05 87
	L -1.152e-05 88
	L 0.866 88.5
	L 0.866 89.5
	L -1.156e-05 90
	L -1.161e-05 91
	L 0.866 91.5
	L 1.732 91
	L 1.732 90
	L 2.598 89.5
	L 3.464 90
	L 3.464 91
	L 4.33 91.5
	L 5.196 91
	L 6.062 91.5
	L 6.062 92.5
	L 5.196 93
	L 4.33 92.5
	L 3.464 93
	L 3.464 94
	L 2.598 94.5
	L 1.732 94
	L 1.732 93
	L 0.866 92.5
	L -1.177e-05 93
	L -1.181e-05 94
	L 0.866 94.5
	L 0.866 95.5
	L -1.186e-05 96
	L -1.19e-05 97
	L 0.866 97.5
	L 1.732 97
	L 2.598 97.5
	L 2.598 98.5
	L 1.732 99
	L 0.866 98.5
	L -1.194e-05 99
	L -1.199e-05 100
	L 0.866 100.5
	L 0.866 101.5
	L -1.203e-05 102
	L -1.208e-05 103
	L 0.866 103.5
	L 1.732 103
	L 1.732 102
	L 2.598 101.5
	L 3.464 102
	L 4.33 101.5
	L 4.33 100.5
	L 3.464 100
	L 3.464 99
	L 4.33 98.5
	L 5.196 99
	L 5.196 100
	L 6.062 100.5
	L 6.928 100
	L 7.794 100.5
	L 7.794 101.5
	L 6.928 102
	L 6.928 103
	L 7.794 103.5
	L 8.66 103
	L 8.66 102
	L 9.526 101.5
	L 10.39 102
	L 10.39 103
	L 11.26 103.5
	L 12.12 103
	L 12.99 103.5
	L 12.99 104.5
	L 12.12 105
	L 11.26 104.5
	L 10.39 105
	L 10.39 106
	L 9.526 106.5
	L 8.66 106
	L 8.66 105
	L 7.794 104.5
	L 6.928 105
	L 6.928 106
	L 7.794 106.5
	L 7.794 107.5
	L 6.928 108
	L 6.062 107.5
	L 5.196 108
	L 5.196 109
	L 4.33 109.5
	L 3.464 109
	L 3.464 108
	L 4.33 107.5
	L 4.33 106.5
	L 3.464 106
	L 2.598 106.5
	L 1.732 106
	L 1.732 105
	L 0.866 104.5
	L -1.266e-05 105
	L -1.27e-05 106
	L 0.866 106.5
	L 0.866 107.5
	L -1.274e-05 108
	L -1.279e-05 109
	L 0.866 109.5
	L 1.732 109
	L 2.598 109.5
	L 2.598 110.5
	L 1.732 111
	L 0.866 110.5
	L -1.283e-05 111
	L -1.287e-05 112
	L 0.866 112.5
	L 0.866 113.5
	L -1.292e-05 114
	L -1.296e-05 115
	L 0.866 115.5
	L 1.732 115
	L 1.732 114
	L 2.598 113.5
	L 3.464 114
	L 3.464 115
	L 4.33 115.5
	L 5.196 115
	L 6.062 115.5
	L 6.062 116.5
	L 5.196 117
	L 4.33 116.5
	L 3.464 117
	L 3.464 118
	L 2.598 118.5
	L 1.732 118
	L 1.732 117
	L 0.866 116.5
	L -1.313e-05 117
	L -1.317e-05 118
	L 0.866 118.5
	L 0.866 119.5
	L -1.321e-05 120
	L -1.326e-05 121
	L 0.866 121.5
	L 1.732 121
	L 2.598 121.5
	L 2.598 122.5
	L 1.732 123
	L 0.866 122.5
	L -1.33e-05 123
	L -1.334e-05 124
	L 0.866 124.5
	L 0.866 125.5
	L -1.339e-05 126
	L -1.343e-05 127
	L 0.866 127.5
	L 1.732 127
	L 1.732 126
	L 2.598 125.5
	L 3.464 126
	L 4.33 125.5
	L 4.33 124.5
	L 3.464 124
	L 3.464 123
	L 4.33 122.5
	L 5.196 123
	L 5.196 124
	L 6.062 124.5
	L 6.928 124
	L 6.928 123
	L 7.794 122.5
	L 8.66 123
	L 9.526 122.5
	L 9.526 121.5
	L 8.66 121
	L 7.794 121.5
	L 6.928 121
	L 6.928 120
	L 7.794 119.5
	L 7.794 118.5
	L 6.928 118
	L 6.928 117
	L 7.794 116.5
	L 8.66 117
	L 8.66 118
	L 9.526 118.5
	L 10.39 118
	L 11.26 118.5
	L 11.26 119.5
	L 10.39 120
	L 10.39 121
	L 11.26 121.5
	L 12.12 121
	L 12.12 120
	L 12.99 119.5
	L 13.86 120
	L 14.72 119.5
	L 14.72 118.5
	L 13.86 118
	L 13.86 117
	L 14.72 116.5
	L 15.59 117
	L 15.59 118
	L 16.45 118.5
	L 17.32 118
	L 17.32 117
	L 18.19 116.5
	L 19.05 117
	L 19.92 116.5
	L 19.92 115.5
	L 19.05 115
	L 18.19 115.5
	L 17.32 115
	L 17.32 114
	L 16.45 113.5
	L 15.59 114
	L 15.59 115
	L 14.72 115.5
	L 13.86 115
	L 13.86 114
	L 14.72 113.5
	L 14.72 112.5
	L 13.86 112
	L 13.86 111
	L 14.72 110.5
	L 15.59 111
	L 16.45 110.5
	L 16.45 109.5
	L 15.59 109
	L 14.72 109.5
	L 13.86 109
	L 13.86 108
	L 14.72 107.5
	L 14.72 106.5
	L 13.86 106
	L 13.86 105
	L 14.72 104.5
	L 15.59 105
	L 15.59 106
	L 16.45 106.5
	L 17.32 106
	L 18.19 106.5
	L 18.19 107.5
	L 17.32 108
	L 17.32 109
	L 18.19 109.5
	L 19.05 109
	L 19.05 108
	L 19.92 107.5
	L 20.78 108
	L 20.78 109
	L 21.65 109.5
	L 22.52 109
	L 23.38 109.5
	L 23.38 110.5
	L 22.52 111
	L 21.65 110.5
	L 20.78 111
	L 20.78 112
	L 21.65 112.5
	L 21.65 113.5
	L 20.78 114
	L 20.78 115
	L 21.65 115.5
	L 22.52 115
	L 22.52 114
	L 23.38 113.5
	L 24.25 114
	L 25.11 113.5
	L 25.11 112.5
	L 24.25 112
	L 24.25 111
	L 25.11 110.5
	L 25.98 111
	L 25.98 112
	L 26.85 112.5
	L 27.71 112
	L 27.71 111
	L 28.58 110.5
	L 29.44 111
	L 30.31 110.5
	L 30.31 109.5
	L 29.44 109
	L 28.58 109.5
	L 27.71 109
	L 27.71 108
	L 28.58 107.5
	L 28.58 106.5
	L 27.71 106
	L 27.71 105
	L 28.58 104.5
	L 29.44 105
	L 29.44 106
	L 30.31 106.5
	L 31.18 106
	L 32.04 106.5
	L 32.04 107.5
	L 31.18 108
	L 31.18 109
	L 32.04 109.5
	L 32.91 109
	L 32.91 108
	L 33.77 107.5
	L 34.64 108
	L 35.51 107.5
	L 35.51 106.5
	L 34.64 106
	L 34.64 105
	L 35.51 104.5
	L 36.37 105
	L 36.37 106
	L 37.24 106.5
	L 38.11 106
	L 38.11 105
	L 38.97 104.5
	L 39.84 105
	L 40.7 104.5
	L 40.7 103.5
	L 39.84 103
	L 38.97 103.5
	L 38.11 103
	L 38.11 102
	L 37.24 101.5
	L 36.37 102
	L 36.37 103
	L 35.51 103.5
	L 34.64 103
	L 34.64 102
	L 35.51 101.5
	L 35.51 100.5
	L 34.64 100
	L 33.77 100.5
	L 32.91 100
	L 32.91 99
	L 32.04 98.5
	L 31.18 99
	L 31.18 100
	L 32.04 100.5
	L 32.04 101.5
	L 31.18 102
	L 30.31 101.5
	L 29.44 102
	L 29.44 103
	L 28.58 103.5
	L 27.71 103
	L 27.71 102
	L 28.58 101.5
	L 28.58 100.5
	L 27.71 100
	L 27.71 99
	L 28.58 98.5
	L 29.44 99
	L 30.31 98.5
	L 30.31 97.5
	L 29.44 97
	L 28.58 97.5
	L 27.71 97
	L 27.71 96
	L 28.58 95.5
	L 28.58 94.5
	L 27.71 94
	L 27.71 93
	L 28.58 92.5
	L 29.44 93
	L 29.44 94
	L 30.31 94.5
	L 31.18 94
	L 31.18 93
	L 32.04 92.5
	L 32.91 93
	L 33.77 92.5
	L 33.77 91.5
	L 32.91 91
	L 32.04 91.5
	L 31.18 91
	L 31.18 90
	L 30.31 89.5
	L 29.44 90
	L 29.44 91
	L 28.58 91.5
	L 27.71 91
	L 27.71 90
	L 28.58 89.5
	L 28.58 88.5
	L 27.71 88
	L 27.71 87
	L 28.58 86.5
	L 29.44 87
	L 30.31 86.5
	L 30.31 85.5
	L 29.44 85
	L 28.58 85.5
	L 27.71 85
	L 27.71 84
	L 28.58 83.5
	L 28.58 82.5
	L 27.71 82
	L 27.71 81
	L 28.58 80.5
	L 29.44 81
	L 29.44 82
	L 30.31 82.5
	L 31.18 82
	L 32.04 82.5
	L 32.04 83.5
	L 31.18 84
	L 31.18 85
	L 32.04 85.5
	L 32.91 85
	L 32.91 84
	L 33.77 83.5
	L 34.64 84
	L 34.64 85
	L 35.51 85.5
	L 36.37 85
	L 37.24 85.5
	L 37.24 86.5
	L 36.37 87
	L 35.51 86.5
	L 34.64 87
	L 34.64 88
	L 35.51 88.5
	L 35.51 89.5
	L 34.64 90
	L 34.64 91
	L 35.51 91.5
	L 36.37 91
	L 36.37 90
	L 37.24 89.5
	L 38.11 90
	L 38.97 89.5
	L 38.97 88.5
	L 38.11 88
	L 38.11 87
	L 38.97 86.5
	L 39.84 87
	L 39.84 88
	L 40.7 88.5
	L 41.57 88
	L 42.44 88.5
	L 42.44 89.5
	L 41.57 90
	L 41.57 91
	L 42.44 91.5
	L 43.3 91
	L 43.3 90
	L 44.17 89.5
	L 45.03 90
	L 45.03 91
	L 45.9 91.5
	L 46.77 91
	L 47.63 91.5
	L 47.63 92.5
	L 46.77 93
	L 45.9 92.5
	L 45.03 93
	L 45.03 94
	L 44.17 94.5
	L 43.3 94
	L 43.3 93
	L 42.44 92.5
	L 41.57 93
	L 41.57 94
	L 42.44 94.5
	L 42.44 95.5
	L 41.57 96
	L 41.57 97
	L 42.44 97.5
	L 43.3 97
	L 44.17 97.5
	L 44.17 98.5
	L 43.3 99
	L 42.44 98.5
	L 41.57 99
	L 41.57 100
	L 42.44 100.5
	L 42.44 101.5
	L 41.57 102
	L 41.57 103
	L 42.44 103.5
	L 43.3 103
	L 43.3 102
	L 44.17 101.5
	L 45.03 102
	L 45.9 101.5
	L 45.9 100.5
	L 45.03 100
	L 45.03 99
	L 45.9 98.5
	L 46.77 99
	L 46.77 100
	L 47.63 100.5
	L 48.5 100
	L 48.5 99
	L 49.36 98.5
	L 50.23 99
	L 51.1 98.5
	L 51.1 97.5
	L 50.23 97
	L 49.36 97.5
	L 48.5 97
	L 48.5 96
	L 49.36 95.5
	L 49.36 94.5
	L 48.5 94
	L 48.5 93
	L 49.36 92.5
	L 50.23 93
	L 50.23 94
	L 51.1 94.5
	L 51.96 94
	L 52.83 94.5
	L 52.83 95.5
	L 51.96 96
	L 51.96 97
	L 52.83 97.5
	L 53.69 97
	L 53.69 96
	L 54.56 95.5
	L 55.43 96
	L 56.29 95.5
	L 56.29 94.5
	L 55.43 94
	L 55.43 93
	L 56.29 92.5
	L 57.16 93
	L 57.16 94
	L 58.02 94.5
	L 58.89 94
	L 58.89 93
	L 59.76 92.5
	L 60.62 93
	L 61.49 92.5
	L 61.49 91.5
	L 60.62 91
	L 59.76 91.5
	L 58.89 91
	L 58.89 90
	L 58.02 89.5
	L 57.16 90
	L 57.16 91
	L 56.29 91.5
	L 55.43 91
	L 55.43 90
	L 56.29 89.5
	L 56.29 88.5
	L 55.43 88
	L 55.43 87
	L 56.29 86.5
	L 57.16 87
	L 58.02 86.5
	L 58.02 85.5
	L 57.16 85
	L 56.29 85.5
	L 55.43 85
	L 55.43 84
	L 56.29 83.5
	L 56.29 82.5
	L 55.43 82
	L 55.43 81
	L 56.29 80.5
	L 57.16 81
	L 57.16 82
	L 58.02 82.5
	L 58.89 82
	L 59.76 82.5
	L 59.76 83.5
	L 58.89 84
	L 58.89 85
	L 59.76 85.5
	L 60.62 85
	L 60.62 84
	L 61.49 83.5
	L 62.35 84
	L 62.35 85
	L 63.22 85.5
	L 64.09 85
	L 64.95 85.5
	L 64.95 86.5
	L 64.09 87
	L 63.22 86.5
	L 62.35 87
	L 62.35 88
	L 63.22 88.5
	L 63.22 89.5
	L 62.35 90
	L 62.35 91
	L 63.22 91.5
	L 64.09 91
	L 64.09 90
	L 64.95 89.5
	L 65.82 90
	L 66.68 89.5
	L 66.68 88.5
	L 65.82 88
	L 65.82 87
	L 66.68 86.5
	L 67.55 87
	L 67.55 88
	L 68.42 88.5
	L 69.28 88
	L 69.28 87
	L 70.15 86.5
	L 71.01 87
	L 71.88 86.5
	L 71.88 85.5
	L 71.01 85
	L 70.15 85.5
	L 69.28 85
	L 69.28 84
	L 70.15 83.5
	L 70.15 82.5
	L 69.28 82
	L 69.28 81
	L 70.15 80.5
	L 71.01 81
	L 71.01 82
	L 71.88 82.5
	L 72.75 82
	L 73.61 82.5
	L 73.61 83.5
	L 72.75 84
	L 72.75 85
	L 73.61 85.5
	L 74.48 85
	L 74.48 84
	L 75.34 83.5
	L 76.21 84
	L 77.08 83.5
	L 77.08 82.5
	L 76.21 82
	L 76.21 81
	L 77.08 80.5
	L 77.94 81
	L 77.94 82
	L 78.81 82.5
	L 79.67 82
	L 79.67 81
	L 80.54 80.5
	L 81.41 81
	L 82.27 80.5
	L 82.27 79.5
	L 81.41 79
	L 80.54 79.5
	L 79.67 79
	L 79.67 78
	L 78.81 77.5
	L 77.94 78
	L 77.94 79
	L 77.08 79.5
	L 76.21 79
	L 76.21 78
	L 77.08 77.5
	L 77.08 76.5
	L 76.21 76
	L 75.34 76.5
	L 74.48 76
	L 74.48 75
	L 73.61 74.5
	L 72.75 75
	L 72.75 76
	L 73.61 76.5
	L 73.61 77.5
	L 72.75 78
	L 71.88 77.5
	L 71.01 78
	L 71.01 79
	L 70.15 79.5
	L 69.28 79
	L 69.28 78
	L 70.15 77.5
	L 70.15 76.5
	L 69.28 76
	L 69.28 75
	L 70.15 74.5
	L 71.01 75
	L 71.88 74.5
	L 71.88 73.5
	L 71.01 73
	L 70.15 73.5
	L 69.28 73
	L 69.28 72
	L 68.42 71.5
	L 67.55 72
	L 67.55 73
	L 66.68 73.5
	L 65.82 73
	L 65.82 72
	L 66.68 71.5
	L 66.68 70.5
	L 65.82 70
	L 64.95 70.5
	L 64.09 70
	L 64.09 69
	L 63.22 68.5
	L 62.35 69
	L 62.35 70
	L 63.22 70.5
	L 63.22 71.5
	L 62.35 72
	L 62.35 73
	L 63.22 73.5
	L 64.09 73
	L 64.95 73.5
	L 64.95 74.5
	L 64.09 75
	L 63.22 74.5
	L 62.35 75
	L 62.35 76
	L 61.49 76.5
	L 60.62 76
	L 60.62 75
	L 59.76 74.5
	L 58.89 75
	L 58.89 76
	L 59.76 76.5
	L 59.76 77.5
	L 58.89 78
	L 58.02 77.5
	L 57.16 78
	L 57.16 79
	L 56.29 79.5
	L 55.43 79
	L 55.43 78
	L 56.29 77.5
	L 56.29 76.5
	L 55.43 76
	L 55.43 75
	L 56.29 74.5
	L 57.16 75
	L 58.02 74.5
	L 58.02 73.5
	L 57.16 73
	L 56.29 73.5
	L 55.43 73
	L 55.43 72
	L 56.29 71.5
	L 56.29 70.5
	L 55.43 70
	L 55.43 69
	L 56.29 68.5
	L 57.16 69
	L 57.16 70
	L 58.02 70.5
	L 58.89 70
	L 58.89 69
	L 59.76 68.5
	L 60.62 69
	L 61.49 68.5
	L 61.49 67.5
	L 60.62 67
	L 59.76 67.5
	L 58.89 67
	L 58.89 66
	L 58.02 65.5
	L 57.16 66
	L 57.16 67
	L 56.29 67.5
	L 55.43 67
	L 55.43 66
	L 56.29 65.5
	L 56.29 64.5
	L 55.43 64
	L 55.43 63
	L 56.29 62.5
	L 57.16 63
	L 58.02 62.5
	L 58.02 61.5
	L 57.16 61
	L 56.29 61.5
	L 55.43 61
	L 55.43 60
	L 56.29 59.5
	L 56.29 58.5
	L 55.43 58
	L 55.43 57
	L 56.29 56.5
	L 57.16 57
	L 57.16 58
	L 58.02 58.5
	L 58.89 58
	L 59.76 58.5
	L 59.76 59.5
	L 58.89 60
	L 58.89 61
	L 59.76 61.5
	L 60.62 61
	L 60.62 60
	L 61.49 59.5
	L 62.35 60
	L 63.22 59.5
	L 63.22 58.5
	L 62.35 58
	L 62.35 57
	L 63.22 56.5
	L 64.09 57
	L 64.09 58
	L 64.95 58.5
	L 65.82 58
	L 65.82 57
	L 66.68 56.5
	L 67.55 57
	L 68.42 56.5
	L 68.42 55.5
	L 67.55 55
	L 66.68 55.5
	L 65.82 55
	L 65.82 54
	L 64.95 53.5
	L 64.09 54
	L 64.09 55
	L 63.22 55.5
	L 62.35 55
	L 62.35 54
	L 63.22 53.5
	L 63.22 52.5
	L 62.35 52
	L 61.49 52.5
	L 60.62 52
	L 60.62 51
	L 59.76 50.5
	L 58.89 51
	L 58.89 52
	L 59.76 52.5
	L 59.76 53.5
	L 58.89 54
	L 58.02 53.5
	L 57.16 54
	L 57.16 55
	L 56.29 55.5
	L 55.43 55
	L 55.43 54
	L 56.29 53.5
	L 56.29 52.5
	L 55.43 52
	L 55.43 51
	L 56.29 50.5
	L 57.16 51
	L 58.02 50.5
	L 58.02 49.5
	L 57.16 49
	L 56.29 49.5
	L 55.43 49
	L 55.43 48
	L 56.29 47.5
	L 56.29 46.5
	L 55.43 46
	L 55.43 45
	L 56.29 44.5
	L 57.16 45
	L 57.16 46
	L 58.02 46.5
	L 58.89 46
	L 58.89 45
	L 59.76 44.5
	L 60.62 45
	L 61.49 44.5
	L 61.49 43.5
	L 60.62 43
	L 59.76 43.5
	L 58.89 43
	L 58.89 42
	L 58.02 41.5
	L 57.16 42
	L 57.16 43
	L 56.29 43.5
	L 55.43 43
	L 55.43 42
	L 56.29 41.5
	L 56.29 40.5
	L 55.43 40
	L 55.43 39
	L 56.29 38.5
	L 57.16 39
	L 58.02 38.5
	L 58.02 37.5
	L 57.16 37
	L 56.29 37.5
	L 55.43 37
	L 55.43 36
	L 56.29 35.5
	L 56.29 34.5
	L 55.43 34
	L 55.43 33
	L 56.29 32.5
	L 57.16 33
	L 57.16 34
	L 58.02 34.5
	L 58.89 34
	L 59.76 34.5
	L 59.76 35.5
	L 58.89 36
	L 58.89 37
	L 59.76 37.5
	L 60.62 37
	L 60.62 36
	L 61.49 35.5
	L 62.35 36
	L 62.35 37
	L 63.22 37.5
	L 64.09 37
	L 64.95 37.5
	L 64.95 38.5
	L 64.09 39
	L 63.22 38.5
	L 62.35 39
	L 62.35 40
	L 63.22 40.5
	L 63.22 41.5
	L 62.35 42
	L 62.35 43
	L 63.22 43.5
	L 64.09 43
	L 64.09 42
	L 64.95 41.5
	L 65.82 42
	L 66.68 41.5
	L 66.68 40.5
	L 65.82 40
	L 65.82 39
	L 66.68 38.5
	L 67.55 39
	L 67.55 40
	L 68.42 40.5
	L 69.28 40
	L 70.15 40.5
	L 70.15 41.5
	L 69.28 42
	L 69.28 43
	L 70.15 43.5
	L 71.01 43
	L 71.01 42
	L 71.88 41.5
	L 72.75 42
	L 72.75 43
	L 73.61 43.5
	L 74.48 43
	L 75.34 43.5
	L 75.34 44.5
	L 74.48 45
	L 73.61 44.5
	L 72.75 45
	L 72.75 46
	L 71.88 46.5
	L 71.01 46
	L 71.01 45
	L 70.15 44.5
	L 69.28 45
	L 69.28 46
	L 70.15 46.5
	L 70.15 47.5
	L 69.28 48
	L 69.28 49
	L 70.15 49.5
	L 71.01 49
	L 71.88 49.5
	L 71.88 50.5
	L 71.01 51
	L 70.15 50.5
	L 69.28 51
	L 69.28 52
	L 70.15 52.5
	L 70.15 53.5
	L 69.28 54
	L 69.28 55
	L 70.15 55.5
	L 71.01 55
	L 71.01 54
	L 71.88 53.5
	L 72.75 54
	L 73.61 53.5
	L 73.61 52.5
	L 72.75 52
	L 72.75 51
	L 73.61 50.5
	L 74.48 51
	L 74.48 52
	L 75.34 52.5
	L 76.21 52
	L 76.21 51
	L 77.08 50.5
	L 77.94 51
	L 78.81 50.5
	L 78.81 49.5
	L 77.94 49
	L 77.08 49.5
	L 76.21 49
	L 76.21 48
	L 77.08 47.5
	L 77.08 46.5
	L 76.21 46
	L 76.21 45
	L 77.08 44.5
	L 77.94 45
	L 77.94 46
	L 78.81 46.5
	L 79.67 46
	L 80.54 46.5
	L 80.54 47.5
	L 79.67 48
	L 79.67 49
	L 80.54 49.5
	L 81.41 49
	L 81.41 48
	L 82.27 47.5
	L 83.14 48
	L 83.14 49
	L 84 49.5
	L 84.87 49
	L 85.74 49.5
	L 85.74 50.5
	L 84.87 51
	L 84 50.5
	L 83.14 51
	L 83.14 52
	L 84 52.5
	L 84 53.5
	L 83.14 54
	L 83.14 55
	L 84 55.5
	L 84.87 55
	L 84.87 54
	L 85.74 53.5
	L 86.6 54
	L 87.47 53.5
	L 87.47 52.5
	L 86.6 52
	L 86.6 51
	L 87.47 50.5
	L 88.33 51
	L 88.33 52
	L 89.2 52.5
	L 90.07 52
	L 90.93 52.5
	L 90.93 53.5
	L 90.07 54
	L 90.07 55
	L 90.93 55.5
	L 91.8 55
	L 91.8 54
	L 92.66 53.5
	L 93.53 54
	L 93.53 55
	L 94.4 55.5
	L 95.26 55
	L 96.13 55.5
	L 96.13 56.5
	L 95.26 57
	L 94.4 56.5
	L 93.53 57
	L 93.53 58
	L 92.66 58.5
	L 91.8 58
	L 91.8 57
	L 90.93 56.5
	L 90.07 57
	L 90.07 58
	L 90.93 58.5
	L 90.93 59.5
	L 90.07 60
	L 89.2 59.5
	L 88.33 60
	L 88.33 61
	L 87.47 61.5
	L 86.6 61
	L 86.6 60
	L 87.47 59.5
	L 87.47 58.5
	L 86.6 58
	L 85.74 58.5
	L 84.87 58
	L 84.87 57
	L 84 56.5
	L 83.14 57
	L 83.14 58
	L 84 58.5
	L 84 59.5
	L 83.14 60
	L 83.14 61
	L 84 61.5
	L 84.87 61
	L 85.74 61.5
	L 85.74 62.5
	L 84.87 63
	L 84 62.5
	L 83.14 63
	L 83.14 64
	L 84 64.5
	L 84 65.5
	L 83.14 66
	L 83.14 67
	L 84 67.5
	L 84.87 67
	L 84.87 66
	L 85.74 65.5
	L 86.6 66
	L 86.6 67
	L 87.47 67.5
	L 88.33 67
	L 89.2 67.5
	L 89.2 68.5
	L 88.33 69
	L 87.47 68.5
	L 86.6 69
	L 86.6 70
	L 85.74 70.5
	L 84.87 70
	L 84.87 69
	L 84 68.5
	L 83.14 69
	L 83.14 70
	L 84 70.5
	L 84 71.5
	L 83.14 72
	L 83.14 73
	L 84 73.5
	L 84.87 73
	L 85.74 73.5
	L 85.74 74.5
	L 84.87 75
	L 84 74.5
	L 83.14 75
	L 83.14 76
	L 84 76.5
	L 84 77.5
	L 83.14 78
	L 83.14 79
	L 84 79.5
	L 84.87 79
	L 84.87 78
	L 85.74 77.5
	L 86.6 78
	L 87.47 77.5
	L 87.47 76.5
	L 86.6 76
	L 86.6 75
	L 87.47 74.5
	L 88.33 75
	L 88.33 76
	L 89.2 76.5
	L 90.07 76
	L 90.07 75
	L 90.93 74.5
	L 91.8 75
	L 92.66 74.5
	L 92.66 73.5
	L 91.8 73
	L 90.93 73.5
	L 90.07 73
	L 90.07 72
	L 90.93 71.5
	L 90.93 70.5
	L 90.07 70
	L 90.07 69
	L 90.93 68.5
	L 91.8 69
	L 91.8 70
	L 92.66 70.5
	L 93.53 70
	L 94.4 70.5
	L 94.4 71.5
	L 93.53 72
	L 93.53 73
	L 94.4 73.5
	L 95.26 73
	L 95.26 72
	L 96.13 71.5
	L 96.99 72
	L 97.86 71.5
	L 97.86 70.5
	L 96.99 70
	L 96.99 69
	L 97.86 68.5
	L 98.73 69
	L 98.73 70
	L 99.59 70.5
	L 100.5 70
	L 100.5 69
	L 101.3 68.5
	L 102.2 69
	L 103.1 68.5
	L 103.1 67.5
	L 102.2 67
	L 101.3 67.5
	L 100.5 67
	L 100.5 66
	L 99.59 65.5
	L 98.73 66
	L 98.73 67
	L 97.86 67.5
	L 96.99 67
	L 96.99 66
	L 97.86 65.5
	L 97.86 64.5
	L 96.99 64
	L 96.99 63
	L 97.86 62.5
	L 98.73 63
	L 99.59 62.5
	L 99.59 61.5
	L 98.73 61
	L 97.86 61.5
	L 96.99 61
	L 96.99 60
	L 97.86 59.5
	L 97.86 58.5
	L 96.99 58
	L 96.99 57
	L 97.86 56.5
	L 98.73 57
	L 98.73 58
	L 99.59 58.5
	L 100.5 58
	L 101.3 58.5
	L 101.3 59.5
	L 100.5 60
	L 100.5 61
	L 101.3 61.5
	L 102.2 61
	L 102.2 60
	L 103.1 59.5
	L 103.9 60
	L 103.9 61
	L 104.8 61.5
	L 105.7 61
	L 106.5 61.5
	L 106.5 62.5
	L 105.7 63
	L 104.8 62.5
	L 103.9 63
	L 103.9 64
	L 104.8 64.5
	L 104.8 65.5
	L 103.9 66
	L 103.9 67
	L 104.8 67.5
	L 105.7 67
	L 105.7 66
	L 106.5 65.5
	L 107.4 66
	L 108.3 65.5
	L 108.3 64.5
	L 107.4 64
	L 107.4 63
	L 108.3 62.5
	L 109.1 63
	L 109.1 64
	L 110 64.5
	L 110.9 64
"/>
</svg>
