<svg version="1.1" baseProfile="full" xmlns="http://www.w3.org/2000/svg"
width="1024" height="823.9"
viewBox="-3.224 -7.063 16.98 13.66"
>
<rect x="-3.224" y="-7.063" width="100%" height="100%" fill="white" />
<path stroke="green" stroke-width="0.04" stroke-linecap="round" fill="none"
transform="scale(1 -1)"
d="	M 0 0
	L -4.371e-08 1
	L 0.2079 1.978
	L 0.9511 2.647
	L 1.539 3.456
	L 1.946 4.37
	L 2.533 5.179
	L 3.484 5.488
	L 4.35 5.988
	L 4.143 5.01
	L 3.736 4.096
	L 3.148 3.287
	L 2.405 2.618
	L 1.998 3.532
	L 1.41 4.341
	L 1.004 5.254
	L 0.4158 6.063
	L -0.4502 5.563
	L -1.193 4.894
	L -1.401 3.916
	L -1.808 3.002
	L -2.016 2.024
	L -2.016 1.024
	L -2.224 0.04604
	L -2.224 -0.954
	L -1.273 -0.6449
	L -0.4067 -0.1449
	L -8.643e-08 0.7686
	L 0.5878 1.578
	L -0.3633 1.887
	L -1.229 2.387
	L -1.636 3.3
	L -1.844 4.278
	L -2.052 3.3
	L -2.052 2.3
	L -1.464 1.491
	L -1.057 0.5776
	L -0.8494 -0.4005
	L -0.4427 -1.314
	L 0.1451 -2.123
	L 0.5518 -3.037
	L 0.9586 -2.123
	L 1.166 -1.145
	L 1.573 -0.2314
	L 2.161 0.5776
	L 2.904 1.247
	L 3.77 1.747
	L 4.765 1.642
	L 5.716 1.333
	L 6.582 0.8332
	L 7.325 0.1641
	L 7.533 -0.8141
	L 7.94 -1.728
	L 8.147 -2.706
	L 8.147 -3.706
	L 7.94 -4.684
	L 7.533 -5.597
	L 7.94 -4.684
	L 8.147 -3.706
	L 8.891 -3.037
	L 9.478 -2.228
	L 10.43 -1.919
	L 11.42 -1.814
	L 12.17 -1.145
	L 12.75 -0.3359
"/>
</svg>
