<svg version="1.1" baseProfile="full" xmlns="http://www.w3.org/2000/svg"
width="733" height="1024"
viewBox="-8.83 -16.81 26.49 37.01"
>
<rect x="-8.83" y="-16.81" width="100%" height="100%" fill="white" />
<path stroke="green" stroke-width="0.04" stroke-linecap="round" fill="none"
transform="scale(1 -1)"
d="	M 0 0
	L -0.3827 0.9239
	L -1.09 1.631
	L -1.472 2.555
	L -1.472 3.555
	L -1.09 2.631
	L -1.09 1.631
	L -2.014 1.248
	L -3.014 1.248
	L -2.631 0.3244
	L -2.631 -0.6756
	L -2.248 -1.599
	L -1.541 -2.307
	L -1.159 -3.23
	L -1.159 -4.23
	L -2.082 -4.613
	L -3.082 -4.613
	L -3.465 -3.689
	L -3.465 -2.689
	L -3.082 -1.765
	L -2.375 -1.058
	L -1.993 -0.1344
	L -1.286 0.5727
	L -0.3616 0.9554
	L 0.3455 1.663
	L 1.269 2.045
	L 1.976 2.752
	L 2.9 3.135
	L 3.607 3.842
	L 3.99 2.918
	L 3.99 1.918
	L 3.066 1.536
	L 2.359 0.8284
	L 1.435 0.4457
	L 0.4353 0.4457
	L 0.05259 1.37
	L -0.6545 2.077
	L -0.2718 1.153
	L -0.2718 0.1528
	L -0.6545 -0.771
	L -0.6545 -1.771
	L -1.037 -0.8472
	L -1.744 -0.14
	L -2.668 -0.5227
	L -3.668 -0.5227
	L -3.286 -1.447
	L -2.578 -2.154
	L -1.655 -1.771
	L -0.6545 -1.771
	L -1.578 -1.388
	L -2.286 -0.6812
	L -2.668 0.2426
	L -3.375 0.9497
	L -2.993 0.02586
	L -2.993 -0.9741
	L -3.375 -1.898
	L -4.082 -2.605
	L -3.159 -2.222
	L -2.451 -1.515
	L -2.834 -0.5915
	L -2.834 0.4085
	L -3.758 0.02586
	L -4.465 -0.6812
	L -4.848 -1.605
	L -4.848 -2.605
	M 0 0
	L -0.3827 0.9239
	L -0.3827 1.924
	L -0.7654 2.848
	L -1.472 3.555
	L -1.09 2.631
	L -0.3827 1.924
	L -2.376e-06 1
	L 0.7071 0.2929
	L 1.09 -0.631
	L 1.797 -1.338
	L 2.721 -0.9554
	L 3.721 -0.9554
	L 4.645 -0.5727
	L 5.352 0.1344
	L 6.276 -0.2483
	L 7.276 -0.2483
	L 6.893 0.6756
	L 6.186 1.383
	L 6.569 2.307
	L 7.276 3.014
	L 7.658 3.938
	L 8.365 4.645
	L 9.289 5.027
	L 9.996 5.734
	L 10.92 5.352
	L 11.92 5.352
	L 12.3 6.276
	L 12.3 7.276
	L 13.23 7.658
	L 13.93 8.365
	L 14.32 9.289
	L 14.32 10.29
	L 14.7 11.21
	L 15.41 11.92
	L 15.79 12.84
	L 16.5 13.55
	L 16.11 12.63
	L 16.11 11.63
	L 15.19 11.24
	L 14.48 10.54
	L 14.87 11.46
	L 15.57 12.17
	L 15.96 13.09
	L 16.66 13.8
	L 15.74 13.42
	L 15.03 12.71
	L 14.11 13.09
	L 13.11 13.09
	L 12.18 13.48
	L 11.48 14.18
	L 11.09 15.11
	L 10.39 15.81
	L 10 14.89
	L 9.297 14.18
	L 9.679 13.26
	L 9.679 12.26
	L 10.06 11.33
	L 10.77 10.63
	L 11.15 9.704
	L 11.86 8.996
	L 10.94 9.379
	L 9.935 9.379
	L 9.552 10.3
	L 9.552 11.3
	M 0 0
	L -0.3827 -0.9239
	L -0.3827 -1.924
	L 0.5412 -2.307
	L 1.248 -3.014
	L 2.172 -2.631
	L 3.172 -2.631
	L 3.555 -3.555
	L 3.555 -4.555
	L 2.631 -4.938
	L 1.924 -5.645
	L 1 -6.027
	L -6.926e-06 -6.027
	L 0.3827 -6.951
	L 0.3827 -7.951
	L -0.5412 -8.334
	L -1.541 -8.334
	L -1.159 -9.258
	L -1.159 -10.26
	L -0.2346 -10.64
	L 0.4725 -11.35
	L 0.08979 -10.42
	L 0.08979 -9.424
	L 1.014 -9.041
	L 1.721 -8.334
	L 2.103 -9.258
	L 2.103 -10.26
	L 1.721 -11.18
	L 1.014 -11.89
	L 1.396 -10.96
	L 2.103 -10.26
	L 3.027 -9.875
	L 3.734 -9.168
	L 3.352 -10.09
	L 3.352 -11.09
	L 2.428 -11.47
	L 1.428 -11.47
	L 1.045 -10.55
	L 0.3381 -9.844
	L -0.5858 -10.23
	L -1.293 -10.93
	L -2.217 -11.32
	L -3.217 -11.32
	L -4.141 -11.7
	L -5.141 -11.7
	L -5.523 -12.62
	L -5.523 -13.62
	L -5.141 -14.55
	L -4.434 -15.25
	L -4.051 -14.33
	L -3.344 -13.62
	L -3.726 -12.7
	L -4.434 -11.99
	L -5.357 -12.37
	L -6.357 -12.37
	L -6.74 -13.3
	L -7.447 -14.01
	L -7.83 -14.93
	L -7.83 -15.93
	L -6.906 -16.31
	L -6.199 -17.02
	L -5.275 -17.4
	L -4.568 -18.11
	L -3.644 -18.49
	L -2.937 -19.2
	M 0 0
	L 0.3827 -0.9239
	L 1.09 -1.631
	L 0.7071 -2.555
	L 0.7071 -3.555
	L 1.631 -3.938
	L 2.338 -4.645
	L 3.262 -4.262
	L 3.969 -3.555
	L 3.586 -4.479
	L 2.879 -5.186
	L 1.955 -4.803
	L 0.9554 -4.803
	L 0.03155 -5.186
	L -0.9685 -5.186
	L -1.351 -4.262
	L -2.058 -3.555
	L -1.676 -2.631
	L -1.676 -1.631
	L -1.293 -0.7071
	L -0.5857 5.205e-06
	L -0.2031 -0.9239
	L -0.2031 -1.924
	L -0.5857 -2.848
	L -1.293 -3.555
	L -0.9102 -2.631
	L -0.9102 -1.631
	L 0.01373 -1.248
	L 1.014 -1.248
	L 1.938 -0.8656
	L 2.645 -0.1585
	L 2.262 0.7654
	L 2.262 1.765
	L 2.645 2.689
	L 3.352 3.396
	L 3.735 4.32
	L 4.442 5.027
	L 5.366 4.645
	L 6.073 3.938
	L 6.997 4.32
	L 7.997 4.32
	L 8.379 5.244
	L 9.086 5.951
	L 10.01 5.569
	L 10.72 4.861
	L 11.64 4.479
	L 12.35 3.772
	L 13.27 4.154
	L 13.98 4.861
	L 13.06 4.479
	L 12.06 4.479
	L 11.13 4.861
	L 10.13 4.861
	L 10.51 5.785
	L 11.22 6.492
	L 12.15 6.875
	L 13.15 6.875
	L 12.76 5.951
	L 12.06 5.244
	L 11.13 5.627
	L 10.42 6.334
	L 9.5 5.951
	L 8.5 5.951
	L 8.118 5.027
	L 7.411 4.32
"/>
</svg>
